<?xml version="1.0" encoding="iso-8859-1"?>
<!-- Uploaded to: SVG Repo, www.svgrepo.com, Generator: SVG Repo Mixer Tools -->
<svg fill="#fff" height="800px" width="800px" version="1.1" id="Layer_1" xmlns="http://www.w3.org/2000/svg" xmlns:xlink="http://www.w3.org/1999/xlink" 
	 viewBox="0 0 512.002 512.002" xml:space="preserve">
<g>
	<g>
		<g>
			<path d="M511.304,250.954C480.155,140.542,378.511,57.869,256.001,57.869c-122.229,0-224.073,82.395-255.302,193.085
				c-0.932,3.299-0.932,6.792,0,10.093c31.15,110.413,132.79,193.085,255.302,193.085c122.237,0,224.078-82.405,255.302-193.085
				C512.234,257.748,512.234,254.254,511.304,250.954z M256.001,387.117c-72.299,0-131.117-58.819-131.117-131.117
				s58.819-131.117,131.117-131.117s131.117,58.819,131.117,131.117S328.3,387.117,256.001,387.117z"/>
			<path d="M307.827,147.267c-26.645,0-48.517,18.201-54.969,42.163c-34.176,1.621-63.471,29.884-63.471,66.569
				c0,36.732,29.883,66.615,66.615,66.615c36.718,0,64.922-29.315,66.565-63.439C386.786,242.002,373.551,147.267,307.827,147.267z
				 M304.783,223.68c-0.525-0.081-1.044-0.182-1.556-0.305c-7.674-1.835-13.698-8.279-14.909-16.181
				c-1.852-11.994,7.398-22.757,19.509-22.757c10.883,0,19.738,8.854,19.738,19.738C327.565,216.276,316.826,225.537,304.783,223.68
				z"/>
		</g>
	</g>
</g>
</svg>